<svg width="32" height="32" viewBox="0 0 32 32" fill="none" xmlns="http://www.w3.org/2000/svg">
<path d="M4.94141 21.3382L12.2467 28.3924L15.9376 21.3382H4.94141Z" fill="#7659EF"/>
<path d="M15.9368 32.0076L19.5767 28.4929H12.2969L15.9368 32.0076Z" fill="#7245DD"/>
<path d="M19.7017 28.4076L27.0229 21.3382H15.9922L19.7017 28.4076Z" fill="#A033C7"/>
<g opacity="0.96">
<path d="M15.9369 21.3382L12.2461 28.3924L12.3498 28.4929H19.6296L19.7178 28.4076L16.0083 21.3382H15.9369Z" fill="#7749E8"/>
</g>
<g opacity="0.92">
<path d="M15.9731 21.2702L12.2867 14.2453L4.94141 21.3382H15.9376L15.9731 21.2702Z" fill="#7F6EF9"/>
</g>
<path d="M12.2871 14.2453L15.9734 21.2702L19.6647 14.2164L15.9907 10.6689L12.2871 14.2453Z" fill="#DD22CC"/>
<g opacity="0.92">
<path d="M16.0086 21.3382H27.0393L19.664 14.2164L15.9727 21.2702L16.0086 21.3382Z" fill="#AD39D3"/>
</g>
<path d="M16.0089 21.3382L15.973 21.2702L15.9375 21.3382H16.0089Z" fill="#9755FF"/>
<path d="M4.94141 21.3382L12.2867 14.2453L4.94141 0.248001V21.3382Z" fill="#6CA7FF"/>
<path d="M15.9903 10.6689L4.94141 0V0.248L12.2867 14.2453L15.9903 10.6689Z" fill="#5BD1FF"/>
<path d="M27.0394 21.3382V0.120445L19.6641 14.2164L27.0394 21.3382Z" fill="#C524CE"/>
<path d="M27.0396 0.120444V0L15.9902 10.6689L19.6643 14.2164L27.0396 0.120444Z" fill="#F425DC"/>
</svg>
